<?xml version="1.0" encoding="utf-8"?>
<!-- Generator: Adobe Illustrator 19.1.0, SVG Export Plug-In . SVG Version: 6.00 Build 0)  -->
<svg version="1.1" id="Layer_1" xmlns="http://www.w3.org/2000/svg" xmlns:xlink="http://www.w3.org/1999/xlink" x="0px" y="0px"
	 viewBox="0 0 21 21" style="enable-background:new 0 0 21 21;" xml:space="preserve">
<style type="text/css">
	.st0{fill:#010101;}
</style>
<g id="Layer_2">
	<path class="st0" d="M10.5,0C4.7,0,0,4.7,0,10.5S4.7,21,10.5,21S21,16.3,21,10.5S16.3,0,10.5,0z M10.5,19.3c-4.9,0-8.8-4-8.8-8.8
		s3.9-8.8,8.8-8.8s8.8,4,8.8,8.8S15.4,19.3,10.5,19.3z"/>
	<path class="st0" d="M6.3,7c0.3-0.3,0.9-0.3,1.2,0l6.5,6.5c0.3,0.3,0.3,0.9,0,1.2s-0.9,0.3-1.2,0L6.3,8.2C5.9,7.9,5.9,7.3,6.3,7z"
		/>
	<path class="st0" d="M6.1,14.9c-0.3-0.3-0.3-0.9,0-1.3L12.7,7c0.4-0.3,0.9-0.3,1.3,0c0.3,0.3,0.3,0.9,0,1.3l-6.6,6.6
		C7,15.2,6.5,15.2,6.1,14.9z"/>
</g>
</svg>
